#N canvas 1 52 450 300 10;
#N canvas 572 464 450 300 nyquist 0;
#X obj 68 210 outlet;
#X obj 46 -12 inlet;
#X obj 104 101 hsl 128 27 2 30 0 0 empty \$0-canvas0 Decay 4 18 0 22
-66577 -258113 -4034 0 1;
#X msg 107 73 label \$1;
#X msg 179 65 range \$1 \$2;
#X obj 185 40 pack;
#X obj 150 108 cnv 15 1 1 empty \$0-range0 (2-30) 0 0 0 12 -1 -4034
0;
#X obj 147 12 unpack s 4 4;
#X obj 24 47 route set;
#X msg 206 181 label (\$1-\$2);
#X obj 206 202 s \$0-range0;
#X connect 1 0 8 0;
#X connect 2 0 0 0;
#X connect 3 0 2 0;
#X connect 4 0 2 0;
#X connect 4 0 9 0;
#X connect 5 0 4 0;
#X connect 7 0 3 0;
#X connect 7 1 5 0;
#X connect 7 2 5 1;
#X connect 8 0 7 0;
#X connect 8 1 2 0;
#X connect 9 0 10 0;
#X coords 0 -1 1 1 135 28 1 100 100;
#X restore 101 101 pd nyquist;
#X obj 1 -120 loadbang;
#X msg -23 33 control Decay 16;
#X obj 17 -69 \$1;
#X obj 156 -24 inlet;
#X obj 120 57 route;
#X obj 166 14 loadbang;
#X obj 165 36 \$1;
#X obj 147 79 outlet;
#X obj 28 -47 pack s 0 1;
#X obj 16 -96 t b b b;
#X msg 72 -19 set \$1 \$2 \$3;
#X obj 56 -68 \$2;
#X obj 85 -68 \$3;
#X obj 10 1 print;
#X connect 1 0 10 0;
#X connect 3 0 9 0;
#X connect 3 0 14 0;
#X connect 4 0 5 0;
#X connect 5 0 0 0;
#X connect 5 1 8 0;
#X connect 6 0 7 0;
#X connect 7 0 5 1;
#X connect 9 0 11 0;
#X connect 10 0 3 0;
#X connect 10 1 12 0;
#X connect 10 2 13 0;
#X connect 11 0 0 0;
#X connect 12 0 9 1;
#X connect 13 0 9 2;
#X coords 0 -1 1 1 137 30 2 100 100;
