#N canvas 472 179 557 534 10;
#X obj 59 -115 fiddle~;
#X obj 38 -173 adc~ 1;
#N canvas 381 258 880 360 tube 0;
#X obj 195 -32 inlet;
#X obj 292 -30 inlet~;
#X obj 115 266 outlet;
#X obj 290 268 outlet~;
#X obj 345 209 phasor~;
#X obj 294 234 samphold~;
#X obj 349 110 mtof;
#X obj 346 161 line~;
#X obj 307 211 *~ 5;
#X obj 304 189 osc~ 1;
#X obj 350 136 pack f 1000;
#X msg 45 -42 set LFOrate 0.1 60;
#X msg 45 -10 set LFOdepth 0.12 12;
#X obj 347 88 + 12;
#X obj 70 231 print;
#N canvas 576 683 450 300 nyquist 0;
#X obj 68 210 outlet;
#X obj 46 -12 inlet;
#X obj 104 101 hsl 128 27 12 72 0 0 empty \$0-canvas0 Nyquist 4 18
0 22 -66577 -258113 -4034 7620 1;
#X msg 107 73 label \$1;
#X msg 179 65 range \$1 \$2;
#X obj 185 40 pack;
#X obj 150 108 cnv 15 1 1 empty \$0-range0 (12-72) 0 0 0 12 -1 -4034
0;
#X obj 147 12 unpack s 4 4;
#X obj 24 47 route set;
#X msg 206 181 label (\$1-\$2);
#X obj 206 202 s \$0-range0;
#X connect 1 0 8 0;
#X connect 2 0 0 0;
#X connect 3 0 2 0;
#X connect 4 0 2 0;
#X connect 4 0 9 0;
#X connect 5 0 4 0;
#X connect 7 0 3 0;
#X connect 7 1 5 0;
#X connect 7 2 5 1;
#X connect 8 0 7 0;
#X connect 8 1 2 0;
#X connect 9 0 10 0;
#X coords 0 -1 1 1 135 28 1 100 100;
#X restore 100 101 pd nyquist;
#N canvas 1091 724 450 300 nyquist 0;
#X obj 68 210 outlet;
#X obj 46 -12 inlet;
#X obj 104 100 hsl 128 27 4 4200 0 0 empty \$0-range1 Trackrate 4 18
0 22 -66577 -258113 -4034 133 1;
#X msg 107 73 label \$1;
#X msg 179 65 range \$1 \$2;
#X obj 185 40 pack;
#X obj 158 105 cnv 15 1 1 empty \$0-range1 (4-4200) 0 0 0 12 -1 -4034
0;
#X obj 147 12 unpack s 4 4;
#X obj 24 47 route set;
#X msg 206 181 label (\$1-\$2);
#X obj 207 202 s \$0-range1;
#X connect 1 0 8 0;
#X connect 2 0 0 0;
#X connect 3 0 2 0;
#X connect 4 0 2 0;
#X connect 4 0 9 0;
#X connect 5 0 4 0;
#X connect 7 0 3 0;
#X connect 7 1 5 0;
#X connect 7 2 5 1;
#X connect 8 0 7 0;
#X connect 8 1 2 0;
#X connect 9 0 10 0;
#X coords 0 -1 1 1 135 28 1 100 100;
#X restore 100 131 pd nyquist;
#N canvas 697 643 450 300 nyquist 0;
#X obj 68 210 outlet;
#X obj 46 -12 inlet;
#X obj 104 101 hsl 128 27 0.1 60 0 0 empty \$0-canvas2 LFOrate 4 18
0 22 -66577 -258113 -4034 0 1;
#X msg 107 73 label \$1;
#X msg 179 65 range \$1 \$2;
#X obj 185 40 pack;
#X obj 150 108 cnv 15 1 1 empty \$0-canvas2 (0.1-60) 0 0 0 12 -1 -4034
0;
#X obj 147 12 unpack s 4 4;
#X obj 24 47 route set;
#X msg 206 181 label (\$1-\$2);
#X obj 206 202 s \$0-canvas2;
#X connect 1 0 8 0;
#X connect 2 0 0 0;
#X connect 3 0 2 0;
#X connect 4 0 2 0;
#X connect 4 0 9 0;
#X connect 5 0 4 0;
#X connect 7 0 3 0;
#X connect 7 1 5 0;
#X connect 7 2 5 1;
#X connect 8 0 7 0;
#X connect 8 1 2 0;
#X connect 9 0 10 0;
#X coords 0 -1 1 1 135 28 1 100 100;
#X restore 100 161 pd nyquist;
#N canvas 1264 455 450 300 nyquist 0;
#X obj 68 210 outlet;
#X obj 46 -12 inlet;
#X obj 104 101 hsl 128 27 0.12 12 0 0 empty \$0-canvas3 LFOdepth 4
18 0 22 -66577 -258113 -4034 0 1;
#X msg 107 73 label \$1;
#X msg 179 65 range \$1 \$2;
#X obj 185 40 pack;
#X obj 150 108 cnv 15 1 1 empty \$0-canvas3 (0.12-12) 0 0 0 12 -1 -4034
0;
#X obj 147 12 unpack s 4 4;
#X obj 24 47 route set;
#X msg 206 181 label (\$1-\$2);
#X obj 207 202 s \$0-canvas3;
#X connect 1 0 8 0;
#X connect 2 0 0 0;
#X connect 3 0 2 0;
#X connect 4 0 2 0;
#X connect 4 0 9 0;
#X connect 5 0 4 0;
#X connect 7 0 3 0;
#X connect 7 1 5 0;
#X connect 7 2 5 1;
#X connect 8 0 7 0;
#X connect 8 1 2 0;
#X connect 9 0 10 0;
#X coords 0 -1 1 1 135 28 1 100 100;
#X restore 100 191 pd nyquist;
#X obj 72 -128 loadbang;
#X obj 110 22 route Nyquist Trackrate LFOrate LFOdepth;
#X msg 52 -72 set Trackrate 4 4200;
#X msg 58 -103 set Nyquist 12 72;
#X text 227 -141 we set the sample rate enharmonic;
#X text 212 -125 to an overtone of a note recognized;
#X text 216 -107 to propogate artifact distortion;
#X text 211 -90 in the subsequent overtones;
#N canvas 1318 731 415 187 gpl.3 0;
#X text 23 12 This program is free software: you can redistribute it
and/or modify it under the terms of the GNU General Public License
as published by the Free Software Foundation \, either version 3 of
the License \, or (at your option) any later version. This program
is distributed in the hope that it will be useful \, but WITHOUT ANY
WARRANTY \; without even the implied warranty of MERCHANTABILITY or
FITNESS FOR A PARTICULAR PURPOSE. See the GNU General Public License
for more details. You should have received a copy of the GNU General
Public License along with this program. If not \, see <http://www.gnu.org/licenses/>.
;
#X restore 192 357 pd gpl.3;
#X obj 354 54 t b f;
#X connect 0 0 20 0;
#X connect 1 0 5 0;
#X connect 4 0 5 1;
#X connect 5 0 3 0;
#X connect 6 0 10 0;
#X connect 7 0 4 0;
#X connect 8 0 4 0;
#X connect 9 0 8 0;
#X connect 10 0 7 0;
#X connect 11 0 17 0;
#X connect 12 0 18 0;
#X connect 13 0 6 0;
#X connect 15 0 16 0;
#X connect 15 0 28 0;
#X connect 16 0 10 1;
#X connect 17 0 9 0;
#X connect 18 0 8 1;
#X connect 19 0 22 0;
#X connect 19 0 21 0;
#X connect 19 0 11 0;
#X connect 19 0 12 0;
#X connect 20 0 15 0;
#X connect 20 1 16 0;
#X connect 20 2 17 0;
#X connect 20 3 18 0;
#X connect 20 4 13 0;
#X connect 21 0 16 0;
#X connect 22 0 15 0;
#X connect 28 0 13 0;
#X connect 28 1 13 1;
#X coords 0 -1 1 1 136 120 1 100 100;
#X restore 53 -78 pd tube;
#X obj 37 103 dac~ 1;
#X obj 165 150 r green;
#N canvas 1152 225 450 300 bypass 0;
#X obj 219 16 inlet~;
#X obj 96 272 outlet~;
#X obj 302 261 outlet~;
#X obj 279 179 vline~;
#X obj 263 203 *~;
#X obj 183 193 vline~;
#X obj 131 224 *~;
#X obj 218 68 hip~ 90;
#X msg 183 169 \$1 70;
#X obj 309 14 r red;
#X msg 290 84 1 0;
#X obj 278 113 unpack;
#X obj 345 36 r green;
#X obj 395 57 r blue;
#X msg 331 99 0 1;
#X msg 278 155 \$1 1000;
#X connect 0 0 7 0;
#X connect 3 0 4 1;
#X connect 4 0 2 0;
#X connect 5 0 6 1;
#X connect 6 0 1 0;
#X connect 7 0 6 0;
#X connect 7 0 4 0;
#X connect 8 0 5 0;
#X connect 9 0 10 0;
#X connect 10 0 11 0;
#X connect 11 0 8 0;
#X connect 11 1 15 0;
#X connect 12 0 14 0;
#X connect 13 0 14 0;
#X connect 14 0 11 0;
#X connect 15 0 3 0;
#X restore 37 -148 pd bypass;
#N canvas 818 527 450 455 presets 0;
#X obj 101 101 hradio 32 1 0 8 empty empty thwip 76 12 2 52 -262144
-1 -1 6;
#X obj 142 47 prepend label;
#X obj 104 -86 sel 0 1 2 3 4 5 6 7;
#X msg 188 -49 thwip;
#X msg 182 -20 zirt;
#X msg 83 -62 bloop;
#X msg 74 -35 frag;
#X msg 148 10 bees;
#X msg 97 -8 zot;
#X msg 125 8 waz;
#X obj 98 149 sel 0 1 2 3 4 5 6 7;
#N canvas 892 579 450 300 bloop 0;
#X obj 42 57 inlet;
#X obj 21 241 outlet;
#X msg 94 180 Trackrate 4;
#X msg 102 128 LFOdepth 0.12;
#X msg 99 155 LFOrate 0.1;
#X obj 33 101 t b b b b;
#X msg 86 211 Nyquist 12;
#X connect 0 0 5 0;
#X connect 2 0 1 0;
#X connect 3 0 1 0;
#X connect 4 0 1 0;
#X connect 5 0 6 0;
#X connect 5 1 2 0;
#X connect 5 2 4 0;
#X connect 5 3 3 0;
#X connect 6 0 1 0;
#X restore 93 177 pd bloop;
#N canvas 892 579 450 300 frag 0;
#X obj 42 57 inlet;
#X obj 21 241 outlet;
#X obj 33 101 t b b b b;
#X msg 99 155 LFOrate 12;
#X msg 102 128 LFOdepth 12;
#X msg 94 180 Trackrate 4000;
#X msg 87 211 Nyquist 24;
#X connect 0 0 2 0;
#X connect 2 0 6 0;
#X connect 2 1 5 0;
#X connect 2 2 3 0;
#X connect 2 3 4 0;
#X connect 3 0 1 0;
#X connect 4 0 1 0;
#X connect 5 0 1 0;
#X connect 6 0 1 0;
#X restore 103 197 pd frag;
#N canvas 894 580 450 300 zot 0;
#X obj 42 57 inlet;
#X obj 21 241 outlet;
#X msg 86 211 Nyquist 12;
#X obj 33 101 t b b b b;
#X msg 94 180 Trackrate 1000;
#X msg 99 155 LFOrate 0.5;
#X msg 102 128 LFOdepth 0.4;
#X connect 0 0 3 0;
#X connect 2 0 1 0;
#X connect 3 0 2 0;
#X connect 3 1 4 0;
#X connect 3 2 5 0;
#X connect 3 3 6 0;
#X connect 4 0 1 0;
#X connect 5 0 1 0;
#X connect 6 0 1 0;
#X restore 113 217 pd zot;
#N canvas 1098 675 450 300 waz 0;
#X obj 42 57 inlet;
#X obj 21 241 outlet;
#X obj 33 101 t b b b b;
#X msg 87 211 Nyquist 24;
#X msg 94 180 Trackrate 1000;
#X msg 99 155 LFOrate 1;
#X msg 102 128 LFOdepth 0.6;
#X connect 0 0 2 0;
#X connect 2 0 3 0;
#X connect 2 1 4 0;
#X connect 2 2 5 0;
#X connect 2 3 6 0;
#X connect 3 0 1 0;
#X connect 4 0 1 0;
#X connect 5 0 1 0;
#X connect 6 0 1 0;
#X restore 123 237 pd waz;
#N canvas 892 579 450 300 zirt 0;
#X obj 42 57 inlet;
#X obj 21 241 outlet;
#X obj 33 101 t b b b b;
#X msg 86 211 Nyquist 48;
#X msg 94 180 Trackrate 76;
#X msg 102 128 LFOdepth 12;
#X msg 99 154 LFOrate 14;
#X connect 0 0 2 0;
#X connect 2 0 3 0;
#X connect 2 1 4 0;
#X connect 2 2 6 0;
#X connect 2 3 5 0;
#X connect 3 0 1 0;
#X connect 4 0 1 0;
#X connect 5 0 1 0;
#X connect 6 0 1 0;
#X restore 143 279 pd zirt;
#N canvas 894 580 450 300 thwip 0;
#X obj 42 57 inlet;
#X obj 21 241 outlet;
#X msg 94 180 Trackrate 4;
#X msg 102 128 LFOdepth 0.12;
#X msg 99 155 LFOrate 0.1;
#X obj 33 101 t b b b b;
#X msg 86 211 Nyquist 48;
#X connect 0 0 5 0;
#X connect 2 0 1 0;
#X connect 3 0 1 0;
#X connect 4 0 1 0;
#X connect 5 0 6 0;
#X connect 5 1 2 0;
#X connect 5 2 4 0;
#X connect 5 3 3 0;
#X connect 6 0 1 0;
#X restore 153 299 pd thwip;
#N canvas 892 579 450 300 bees 0;
#X obj 42 57 inlet;
#X obj 21 241 outlet;
#X obj 33 101 t b b b b;
#X msg 86 211 Nyquist 72;
#X msg 94 180 Trackrate 4200;
#X msg 102 128 LFOdepth 2;
#X msg 99 155 LFOrate 60;
#X connect 0 0 2 0;
#X connect 2 0 3 0;
#X connect 2 1 4 0;
#X connect 2 2 6 0;
#X connect 2 3 5 0;
#X connect 3 0 1 0;
#X connect 4 0 1 0;
#X connect 5 0 1 0;
#X connect 6 0 1 0;
#X restore 167 323 pd bees;
#X obj 81 326 outlet;
#X msg 34 -58 38;
#X msg 46 -31 68;
#X msg 154 -47 76;
#X msg 72 14 2;
#X msg 189 26 130;
#X msg -5 73 label_pos \$1 12;
#X msg 146 -14 wuf;
#N canvas 1034 587 450 300 wuf 0;
#X obj 42 57 inlet;
#X obj 21 241 outlet;
#X msg 86 211 Nyquist 12;
#X obj 33 101 t b b b b;
#X msg 102 128 LFOdepth 6;
#X msg 99 155 LFOrate 0.5;
#X msg 94 180 Trackrate 2000;
#X connect 0 0 3 0;
#X connect 2 0 1 0;
#X connect 3 0 2 0;
#X connect 3 1 6 0;
#X connect 3 2 5 0;
#X connect 3 3 4 0;
#X connect 4 0 1 0;
#X connect 5 0 1 0;
#X connect 6 0 1 0;
#X restore 133 259 pd wuf;
#X msg 251 61 set \$1;
#X obj 298 55 loadbang;
#X msg 303 76 6;
#X obj 330 -42 inlet;
#X connect 0 0 2 0;
#X connect 0 0 10 0;
#X connect 0 0 27 0;
#X connect 1 0 0 0;
#X connect 2 0 5 0;
#X connect 2 1 6 0;
#X connect 2 2 8 0;
#X connect 2 3 9 0;
#X connect 2 4 25 0;
#X connect 2 5 4 0;
#X connect 2 6 3 0;
#X connect 2 7 7 0;
#X connect 3 0 1 0;
#X connect 3 0 21 0;
#X connect 4 0 1 0;
#X connect 4 0 21 0;
#X connect 5 0 19 0;
#X connect 5 0 1 0;
#X connect 6 0 1 0;
#X connect 6 0 20 0;
#X connect 7 0 1 0;
#X connect 7 0 23 0;
#X connect 8 0 1 0;
#X connect 8 0 22 0;
#X connect 9 0 1 0;
#X connect 9 0 22 0;
#X connect 10 0 11 0;
#X connect 10 1 12 0;
#X connect 10 2 13 0;
#X connect 10 3 14 0;
#X connect 10 4 26 0;
#X connect 10 5 15 0;
#X connect 10 6 16 0;
#X connect 10 7 17 0;
#X connect 11 0 18 0;
#X connect 12 0 18 0;
#X connect 13 0 18 0;
#X connect 14 0 18 0;
#X connect 15 0 18 0;
#X connect 16 0 18 0;
#X connect 17 0 18 0;
#X connect 19 0 24 0;
#X connect 20 0 24 0;
#X connect 21 0 24 0;
#X connect 22 0 24 0;
#X connect 23 0 24 0;
#X connect 24 0 0 0;
#X connect 25 0 1 0;
#X connect 25 0 19 0;
#X connect 26 0 18 0;
#X connect 27 0 29 0;
#X connect 28 0 29 0;
#X connect 29 0 0 0;
#X connect 30 0 0 0;
#X coords 0 -1 1 1 258 34 2 100 100;
#X restore 49 49 pd presets;
#X obj 228 151 r blue;
#X obj 200 -89 vradio 32 1 0 4 empty empty soung 0 -8 0 10 -262144
-1 -1 2;
#X obj 180 204 int;
#X obj 167 175 bang;
#X obj 248 209 int;
#X obj 231 178 bang;
#X obj 337 116 unpack f f;
#X msg 311 91 0 3;
#X text 235 -79 Boulder Sky;
#X text 231 -49 Pando's Song;
#X text 234 -19 Rocket Marvel;
#X obj 340 49 sel 0 1 2 3;
#X msg 376 90 5 6;
#X text 234 16 nailed to the sky;
#X msg 404 95 1 5;
#X obj 193 -128 z~;
#X obj 238 -170 samplerate~;
#X obj 217 -148 *;
#X floatatom 203 -171 5 0 0 0 Delay.in.Seconds - -;
#X obj 110 -151 *~ 0;
#X obj 144 -152 == 0;
#X obj 138 -248 makenote 127 76;
#X msg 140 -270 43;
#X obj 163 -222 beat 4;
#X obj 200 -193 * 0.001;
#X obj 251 -192 loadbang;
#X msg 298 -262 reset;
#X obj 121 -129 *~ 0;
#X obj 155 -130 == 3;
#X msg 341 94 2 7;
#X connect 0 0 2 0;
#X connect 0 1 29 0;
#X connect 1 0 5 0;
#X connect 2 1 3 0;
#X connect 4 0 10 0;
#X connect 5 0 3 0;
#X connect 5 1 2 1;
#X connect 5 1 0 0;
#X connect 5 1 26 0;
#X connect 6 0 2 0;
#X connect 7 0 12 0;
#X connect 8 0 18 0;
#X connect 8 0 27 1;
#X connect 9 0 6 0;
#X connect 9 0 35 1;
#X connect 10 0 9 0;
#X connect 11 0 6 0;
#X connect 11 0 35 1;
#X connect 12 0 11 0;
#X connect 13 0 9 1;
#X connect 13 1 11 1;
#X connect 14 0 13 0;
#X connect 18 0 14 0;
#X connect 18 1 36 0;
#X connect 18 2 19 0;
#X connect 18 3 21 0;
#X connect 19 0 13 0;
#X connect 21 0 13 0;
#X connect 22 0 2 1;
#X connect 23 0 24 1;
#X connect 24 0 22 1;
#X connect 25 0 24 0;
#X connect 27 0 26 1;
#X connect 28 0 30 0;
#X connect 28 1 30 1;
#X connect 29 0 28 0;
#X connect 30 1 31 0;
#X connect 31 0 25 0;
#X connect 32 0 23 0;
#X connect 33 0 30 0;
#X connect 35 0 34 1;
#X connect 36 0 13 0;
