#N canvas 264 320 254 284 10;
#N canvas 324 192 649 360 tube 0;
#N canvas 74 461 450 300 nyquist 0;
#X obj 68 210 outlet;
#X obj 46 -12 inlet;
#X obj 104 100 hsl 128 27 -4 4 0 0 empty \$0-range1 UpSample 4 18 0
22 -66577 -258113 -4034 12700 1;
#X msg 107 73 label \$1;
#X msg 179 65 range \$1 \$2;
#X obj 185 40 pack;
#X obj 195 108 cnv 15 1 1 empty \$0-range1 (-4-4) 0 0 0 12 -1 -4034
0;
#X obj 147 12 unpack s 4 4;
#X obj 24 47 route set;
#X msg 206 181 label (\$1-\$2);
#X obj 207 202 s \$0-range1;
#X connect 1 0 8 0;
#X connect 2 0 0 0;
#X connect 3 0 2 0;
#X connect 4 0 2 0;
#X connect 4 0 9 0;
#X connect 5 0 4 0;
#X connect 7 0 3 0;
#X connect 7 1 5 0;
#X connect 7 2 5 1;
#X connect 8 0 7 0;
#X connect 8 1 2 0;
#X connect 9 0 10 0;
#X coords 0 -1 1 1 135 28 1 100 100;
#X restore 101 192 pd nyquist;
#N canvas 569 462 450 300 nyquist 0;
#X obj 68 210 outlet;
#X obj 46 -12 inlet;
#X obj 104 101 hsl 128 27 0 12 0 0 empty \$0-canvas2 OverLap 4 18 0
22 -66577 -258113 -4034 0 1;
#X msg 107 73 label \$1;
#X msg 179 65 range \$1 \$2;
#X obj 185 40 pack;
#X obj 190 108 cnv 15 1 1 empty \$0-canvas2 (0-12) 0 0 0 12 -1 -4034
0;
#X obj 147 12 unpack s 4 4;
#X obj 24 47 route set;
#X msg 206 181 label (\$1-\$2);
#X obj 206 202 s \$0-canvas2;
#X connect 1 0 8 0;
#X connect 2 0 0 0;
#X connect 3 0 2 0;
#X connect 4 0 2 0;
#X connect 4 0 9 0;
#X connect 5 0 4 0;
#X connect 7 0 3 0;
#X connect 7 1 5 0;
#X connect 7 2 5 1;
#X connect 8 0 7 0;
#X connect 8 1 2 0;
#X connect 9 0 10 0;
#X coords 0 -1 1 1 135 28 1 100 100;
#X restore 101 162 pd nyquist;
#N canvas 523 483 194 281 nyquist 0;
#X obj 101 145 outlet;
#X obj 126 -86 inlet;
#X msg 109 52 label \$1;
#X msg 151 21 range \$1 \$2;
#X obj 157 -4 pack;
#X obj 119 -32 unpack s 4 4;
#X obj 125 -59 route set;
#X msg 174 48 label (\$1-\$2);
#X obj 175 69 s \$0-canvas3;
#X obj 146 137 hradio 27 1 0 5 empty \$0-canvas3 Window 4 18 0 22 -45076
-258113 -4034 4;
#X obj 104 101 hsl 128 27 4 24 0 0 empty \$0-canvas3 Window 4 18 0
22 -66577 -258113 -4034 3500 1;
#X obj 191 108 cnv 15 1 1 empty \$0-canvas3 (4-24) 0 0 0 12 -1 -4034
0;
#X connect 1 0 6 0;
#X connect 2 0 9 0;
#X connect 2 0 10 0;
#X connect 3 0 7 0;
#X connect 3 0 10 0;
#X connect 4 0 3 0;
#X connect 5 0 2 0;
#X connect 5 1 4 0;
#X connect 5 2 4 1;
#X connect 6 0 5 0;
#X connect 6 1 9 0;
#X connect 6 1 10 0;
#X connect 7 0 8 0;
#X connect 10 0 0 0;
#X coords 0 -1 1 1 135 28 1 100 100;
#X restore 101 132 pd nyquist;
#X obj -9 13 loadbang;
#X obj 255 67 cnv 15 140 62 empty holdit empty 53 101 0 14 -7749 -66577
0;
#X obj 258 80 vsl 12 56 0 96000 0 0 \$0-SampHold \$0-2SampHold SampleHold
0 -6 0 9 -262144 -1 -1 2228 1;
#X obj 366 91 vsl 24 44 1e-05 1 1 0 \$0-Gain \$0-2Gain Gain 0 -8 0
9 -262144 -1 -1 0 1;
#N canvas -16 240 622 479 process 0;
#X obj 101 62 rfft~;
#X obj 48 102 samphold~;
#X obj 115 134 samphold~;
#X obj 18 261 rifft~;
#X obj 174 86 phasor~ 44090;
#X floatatom 150 192 5 0 0 0 - - -;
#X obj 111 415 outlet~;
#X obj 323 334 switch~ 4096 1 1;
#X text 317 352 here is the window sizer;
#X obj 52 19 inlet~;
#X obj 150 170 r AuralSkew;
#X obj 112 351 *~;
#X msg 336 307 set \$1 \$2 \$3;
#N canvas 1 77 454 304 2power 0;
#X obj 219 69 inlet;
#X obj 181 199 outlet;
#X obj 217 101 int;
#X obj 205 137 bang;
#X msg 168 99 2;
#X obj 190 164 pow 2;
#X connect 0 0 2 0;
#X connect 2 0 5 1;
#X connect 2 0 3 0;
#X connect 3 0 4 0;
#X connect 4 0 5 0;
#X connect 5 0 1 0;
#X restore 340 245 pd 2power;
#X obj 348 285 pack 128 1 1;
#N canvas 1 77 454 304 2power 0;
#X obj 219 69 inlet;
#X obj 181 199 outlet;
#X obj 217 101 int;
#X obj 205 137 bang;
#X msg 168 99 2;
#X obj 190 164 pow 2;
#X connect 0 0 2 0;
#X connect 2 0 5 1;
#X connect 2 0 3 0;
#X connect 3 0 4 0;
#X connect 4 0 5 0;
#X connect 5 0 1 0;
#X restore 410 255 pd 2power;
#X obj 173 55 r \$0-SampHold;
#X text 154 400 some of this was made by sunji.roaoul@gmail.com;
#X obj 340 228 r \$0-Window;
#X obj 480 248 r \$0-Upsample;
#X obj 143 303 r \$0-Gain;
#X msg 257 298 1;
#X obj 248 237 loadbang;
#X obj 410 232 r \$0-Overlap;
#X msg 245 265 512 1 16;
#X obj 346 170 bang;
#N canvas 1 77 454 304 2power 0;
#X obj 219 69 inlet;
#X obj 181 199 outlet;
#X obj 217 101 int;
#X obj 205 137 bang;
#X msg 168 99 2;
#X obj 190 164 pow 2;
#X connect 0 0 2 0;
#X connect 2 0 5 1;
#X connect 2 0 3 0;
#X connect 3 0 4 0;
#X connect 4 0 5 0;
#X connect 5 0 1 0;
#X restore 462 283 pd 2power;
#X connect 0 0 1 0;
#X connect 0 1 2 0;
#X connect 1 0 3 0;
#X connect 2 0 3 1;
#X connect 3 0 11 0;
#X connect 4 0 2 1;
#X connect 4 0 1 1;
#X connect 9 0 0 0;
#X connect 10 0 5 0;
#X connect 11 0 6 0;
#X connect 12 0 7 0;
#X connect 12 0 24 0;
#X connect 13 0 14 0;
#X connect 14 0 12 0;
#X connect 15 0 14 1;
#X connect 15 0 25 0;
#X connect 16 0 4 0;
#X connect 18 0 13 0;
#X connect 19 0 26 0;
#X connect 20 0 11 1;
#X connect 21 0 7 0;
#X connect 22 0 21 0;
#X connect 22 0 24 0;
#X connect 23 0 15 0;
#X connect 24 0 12 0;
#X connect 25 0 14 0;
#X connect 26 0 14 2;
#X connect 26 0 25 0;
#X restore 256 223 pd process;
#X obj 275 88 vsl 12 48 4 20 0 0 \$0-Window \$0-2Window Window -2 -5
0 8 -262144 -1 -1 1619 1;
#X obj 293 98 vsl 12 38 0 12 0 0 \$0-Overlap \$0-2Overlap OverLap -2
-6 0 8 -262144 -1 -1 0 1;
#X obj 311 108 vsl 12 28 -4 4 0 0 \$0-Upsample \$0-2Upsample UpSample
-2 -6 0 8 -262144 -1 -1 2700 1;
#X obj 256 244 outlet~;
#X obj 256 202 inlet~;
#X text 408 61 this was made by sunji.roaoul@gmail.com;
#X obj 378 154 inlet;
#X obj 437 274 s \$0-2SampHold;
#X obj 475 254 s \$0-2Window;
#X obj 516 234 s \$0-2Overlap;
#X obj 558 215 s \$0-2Upsample;
#X obj 593 194 s \$0-2Gain;
#N canvas 125 164 465 512 save 0;
#X obj 224 265 tabread \$0-saveparam;
#X obj 238 153 unpack f f;
#X msg 211 69 \$1 0;
#X msg 241 79 \$1 1;
#X msg 281 89 \$1 2;
#X obj 186 279 int;
#X obj 160 257 bang;
#X obj 201 302 pack;
#X obj 118 47 openpanel;
#X obj 224 220 until;
#X obj 21 21 inlet;
#X obj 118 21 inlet;
#X obj 61 352 tabread \$0-saveparam;
#X obj 59 304 until;
#X obj 73 454 textfile;
#X obj 220 175 tabwrite \$0-saveparam;
#X msg 63 378 add \$1;
#X obj 17 263 savepanel;
#X msg 12 369 write \$1;
#X msg 16 447 clear;
#X obj 16 423 pipe 30;
#X obj 21 239 t b b;
#X obj 15 396 bang;
#X obj 133 161 textfile;
#X msg 123 106 read \$1;
#X msg 140 132 rewind;
#X obj 123 258 pack;
#X obj 60 143 until;
#X obj 51 90 bang;
#X msg 52 118 5;
#X msg 59 284 5;
#X obj 60 321 countto 5;
#X obj 78 213 countto 5;
#X obj 225 240 countto 5;
#X msg 224 200 5;
#X obj 275 299 table \$0-saveparam 5;
#X msg 331 109 \$1 3;
#X msg 381 139 \$1 4;
#X obj 368 108 r \$0-Gain;
#X obj 318 78 r \$0-Upsample;
#X obj 268 58 r \$0-Overlap;
#X obj 252 33 r \$0-Window;
#X obj 220 9 r \$0-SampHold;
#X obj 199 328 route 0 1 2 3 4;
#X obj 278 375 s \$0-2Gain;
#X obj 265 396 s \$0-2Upsample;
#X obj 248 415 s \$0-2Overlap;
#X obj 235 436 s \$0-2Window;
#X obj 192 456 s \$0-2SampHold;
#X obj 139 76 r \$0-load;
#X connect 0 0 7 1;
#X connect 0 0 6 0;
#X connect 1 0 15 0;
#X connect 1 1 15 1;
#X connect 2 0 1 0;
#X connect 3 0 1 0;
#X connect 4 0 1 0;
#X connect 5 0 7 0;
#X connect 6 0 5 0;
#X connect 7 0 43 0;
#X connect 8 0 24 0;
#X connect 9 0 33 0;
#X connect 10 0 21 0;
#X connect 11 0 8 0;
#X connect 12 0 16 0;
#X connect 13 0 31 0;
#X connect 16 0 14 0;
#X connect 17 0 18 0;
#X connect 18 0 14 0;
#X connect 18 0 22 0;
#X connect 19 0 14 0;
#X connect 20 0 19 0;
#X connect 21 0 17 0;
#X connect 21 1 30 0;
#X connect 22 0 20 0;
#X connect 23 0 26 1;
#X connect 23 0 32 0;
#X connect 24 0 23 0;
#X connect 24 0 25 0;
#X connect 25 0 23 0;
#X connect 25 0 28 0;
#X connect 26 0 43 0;
#X connect 27 0 23 0;
#X connect 28 0 29 0;
#X connect 29 0 27 0;
#X connect 30 0 13 0;
#X connect 31 0 12 0;
#X connect 32 0 26 0;
#X connect 33 0 0 0;
#X connect 33 0 5 1;
#X connect 34 0 9 0;
#X connect 36 0 1 0;
#X connect 37 0 1 0;
#X connect 38 0 37 0;
#X connect 39 0 36 0;
#X connect 40 0 4 0;
#X connect 41 0 3 0;
#X connect 42 0 2 0;
#X connect 43 0 48 0;
#X connect 43 1 47 0;
#X connect 43 2 46 0;
#X connect 43 3 45 0;
#X connect 43 4 44 0;
#X connect 49 0 24 0;
#X restore 322 157 pd save;
#X obj 333 71 bng 15 250 50 0 empty empty save 0 8 0 6 -262144 -258113
-258113;
#X obj 348 71 bng 15 250 50 0 empty empty open 0 8 0 6 -262144 -4160
-4160;
#X text 328 105 m;
#X text 333 109 a;
#X text 338 112 s;
#X text 340 120 h;
#X text 340 126 e;
#X text 346 127 r;
#X obj 378 174 route SampleHold Window OverLap UpSample Gain;
#X text 318 319 to contact other worlds;
#X text 286 294 this object reduces the sample fidelity;
#X text 299 307 from within the spectral domain;
#X obj 603 253 route load;
#X obj 603 275 s \$0-load;
#N canvas 578 684 450 300 nyquist 0;
#X obj 68 210 outlet;
#X obj 46 -12 inlet;
#X obj 104 101 hsl 128 27 1 44100 0 0 empty \$0-canvas0 SampleHold
4 18 0 22 -66577 -258113 -4034 11200 1;
#X msg 107 73 label \$1;
#X msg 179 65 range \$1 \$2;
#X obj 185 40 pack;
#X obj 150 108 cnv 15 1 1 empty \$0-range0 (1-44100) 0 0 0 12 -1 -4034
0;
#X obj 147 12 unpack s 4 4;
#X obj 24 47 route set;
#X msg 206 181 label (\$1-\$2);
#X obj 206 202 s \$0-range0;
#X connect 1 0 8 0;
#X connect 2 0 0 0;
#X connect 3 0 2 0;
#X connect 4 0 2 0;
#X connect 4 0 9 0;
#X connect 5 0 4 0;
#X connect 7 0 3 0;
#X connect 7 1 5 0;
#X connect 7 2 5 1;
#X connect 8 0 7 0;
#X connect 8 1 2 0;
#X connect 9 0 10 0;
#X coords 0 -1 1 1 135 28 1 100 100;
#X restore 101 102 pd nyquist;
#X obj 105 44 samplerate~;
#X msg 106 71 set SampleHold 1 \$1;
#X msg -10 174 set UpSample -4 4;
#X msg 6 72 set Window 4 24;
#X msg -24 128 set OverLap 0 12;
#X connect 0 0 18 0;
#X connect 1 0 17 0;
#X connect 2 0 16 0;
#X connect 3 0 39 0;
#X connect 3 0 40 0;
#X connect 3 0 38 0;
#X connect 3 0 36 0;
#X connect 7 0 11 0;
#X connect 12 0 7 0;
#X connect 14 0 29 0;
#X connect 21 0 20 0;
#X connect 22 0 20 1;
#X connect 29 0 35 0;
#X connect 29 1 2 0;
#X connect 29 2 1 0;
#X connect 29 3 0 0;
#X connect 29 4 19 0;
#X connect 29 5 33 0;
#X connect 33 0 34 0;
#X connect 35 0 15 0;
#X connect 36 0 37 0;
#X connect 37 0 35 0;
#X connect 38 0 0 0;
#X connect 39 0 2 0;
#X connect 40 0 1 0;
#X coords 0 -1 1 1 138 122 1 100 100;
#X restore 43 -134 pd tube;
#X obj 63 -200 r red;
#N canvas 1 77 450 300 bypass 0;
#X obj 219 16 inlet~;
#X obj 309 14 inlet;
#X obj 96 272 outlet~;
#X obj 302 261 outlet~;
#X obj 288 63 + 1;
#X obj 337 50 % 2;
#X obj 298 41 int 0;
#X obj 279 179 vline~;
#X obj 263 203 *~;
#X obj 183 193 vline~;
#X obj 131 224 *~;
#X obj 207 140 == 0;
#X msg 279 155 \$1 70;
#X msg 183 169 \$1 70;
#X connect 0 0 8 0;
#X connect 0 0 10 0;
#X connect 1 0 6 0;
#X connect 4 0 5 0;
#X connect 5 0 6 1;
#X connect 5 0 12 0;
#X connect 5 0 11 0;
#X connect 6 0 4 0;
#X connect 7 0 8 1;
#X connect 8 0 3 0;
#X connect 9 0 10 1;
#X connect 10 0 2 0;
#X connect 11 0 13 0;
#X connect 12 0 7 0;
#X connect 13 0 9 0;
#X restore 11 -176 pd bypass;
#X obj 11 -202 adc~ 2;
#X obj 12 39 dac~ 2;
#N canvas 569 307 450 455 presets 0;
#X obj 101 102 hradio 32 1 0 6 empty empty warble 38 12 2 52 -45076
-262144 -4034 0;
#X obj 150 65 prepend label;
#X msg 97 -8 zot;
#X msg 125 8 waz;
#N canvas 894 580 450 300 frag 0;
#X obj 42 57 inlet;
#X obj 21 241 outlet;
#X msg 86 211 Nyquist 12;
#X obj 33 101 t b b b b;
#X msg 99 155 LFOrate 12;
#X msg 102 128 LFOdepth 12;
#X msg 94 180 Trackrate 4000;
#X connect 0 0 3 0;
#X connect 2 0 1 0;
#X connect 3 0 2 0;
#X connect 3 1 6 0;
#X connect 3 2 4 0;
#X connect 3 3 5 0;
#X connect 4 0 1 0;
#X connect 5 0 1 0;
#X connect 6 0 1 0;
#X restore 103 197 pd frag;
#N canvas 894 580 450 300 zot 0;
#X obj 42 57 inlet;
#X obj 21 241 outlet;
#X msg 86 211 Nyquist 12;
#X obj 33 101 t b b b b;
#X msg 94 180 Trackrate 1000;
#X msg 99 155 LFOrate 0.5;
#X msg 102 128 LFOdepth 0.4;
#X connect 0 0 3 0;
#X connect 2 0 1 0;
#X connect 3 0 2 0;
#X connect 3 1 4 0;
#X connect 3 2 5 0;
#X connect 3 3 6 0;
#X connect 4 0 1 0;
#X connect 5 0 1 0;
#X connect 6 0 1 0;
#X restore 113 217 pd zot;
#N canvas 1098 675 450 300 waz 0;
#X obj 42 57 inlet;
#X obj 21 241 outlet;
#X obj 33 101 t b b b b;
#X msg 87 211 Nyquist 24;
#X msg 94 180 Trackrate 1000;
#X msg 99 155 LFOrate 1;
#X msg 102 128 LFOdepth 0.6;
#X connect 0 0 2 0;
#X connect 2 0 3 0;
#X connect 2 1 4 0;
#X connect 2 2 5 0;
#X connect 2 3 6 0;
#X connect 3 0 1 0;
#X connect 4 0 1 0;
#X connect 5 0 1 0;
#X connect 6 0 1 0;
#X restore 123 237 pd waz;
#X obj 81 326 outlet;
#X msg 34 -58 38;
#X msg 46 -31 68;
#X msg 80 23 2;
#X msg -5 73 label_pos \$1 12;
#N canvas 1034 587 450 300 wuf 0;
#X obj 42 57 inlet;
#X obj 21 241 outlet;
#X msg 86 211 Nyquist 12;
#X obj 33 101 t b b b b;
#X msg 102 128 LFOdepth 6;
#X msg 99 155 LFOrate 0.5;
#X msg 94 180 Trackrate 2000;
#X connect 0 0 3 0;
#X connect 2 0 1 0;
#X connect 3 0 2 0;
#X connect 3 1 6 0;
#X connect 3 2 5 0;
#X connect 3 3 4 0;
#X connect 4 0 1 0;
#X connect 5 0 1 0;
#X connect 6 0 1 0;
#X restore 133 259 pd wuf;
#X msg 251 61 set \$1;
#X obj 298 55 loadbang;
#X msg 303 76 0;
#X obj 367 -74 inlet;
#X msg 83 -62 warble;
#X obj 99 149 sel 0 1 2 3 4;
#N canvas 894 580 450 300 warble 0;
#X obj 42 57 inlet;
#X obj 21 241 outlet;
#X msg 94 180 Trackrate 4;
#X msg 102 128 LFOdepth 0.12;
#X msg 99 155 LFOrate 0.1;
#X obj 33 101 t b b b b;
#X msg 86 211 Nyquist 12;
#X connect 0 0 5 0;
#X connect 2 0 1 0;
#X connect 3 0 1 0;
#X connect 4 0 1 0;
#X connect 5 0 6 0;
#X connect 5 1 2 0;
#X connect 5 2 4 0;
#X connect 5 3 3 0;
#X connect 6 0 1 0;
#X restore 93 177 pd warble;
#N canvas 894 580 450 300 flitter 0;
#X obj 42 57 inlet;
#X obj 21 241 outlet;
#X obj 33 101 t b b b b;
#X msg 86 211 Nyquist 48;
#X msg 94 180 Trackrate 76;
#X msg 102 128 LFOdepth 12;
#X msg 99 155 LFOrate 0.12;
#X connect 0 0 2 0;
#X connect 2 0 3 0;
#X connect 2 1 4 0;
#X connect 2 2 6 0;
#X connect 2 3 5 0;
#X connect 3 0 1 0;
#X connect 4 0 1 0;
#X connect 5 0 1 0;
#X connect 6 0 1 0;
#X restore 144 280 pd flitter;
#X msg 74 -35 shado;
#X obj 104 -86 sel 0 1 2 3 4;
#X msg 156 -39 flitter;
#X msg 199 -20 squelch;
#X connect 0 0 13 0;
#X connect 0 0 18 0;
#X connect 0 0 22 0;
#X connect 1 0 0 0;
#X connect 2 0 1 0;
#X connect 2 0 10 0;
#X connect 3 0 1 0;
#X connect 3 0 10 0;
#X connect 4 0 7 0;
#X connect 5 0 7 0;
#X connect 6 0 7 0;
#X connect 8 0 11 0;
#X connect 9 0 11 0;
#X connect 10 0 11 0;
#X connect 11 0 0 0;
#X connect 12 0 7 0;
#X connect 13 0 15 0;
#X connect 14 0 15 0;
#X connect 15 0 0 0;
#X connect 16 0 0 0;
#X connect 17 0 8 0;
#X connect 17 0 1 0;
#X connect 18 0 19 0;
#X connect 18 1 4 0;
#X connect 18 2 5 0;
#X connect 18 3 6 0;
#X connect 18 4 12 0;
#X connect 18 5 20 0;
#X connect 19 0 7 0;
#X connect 20 0 7 0;
#X connect 21 0 1 0;
#X connect 21 0 9 0;
#X connect 22 0 17 0;
#X connect 22 1 21 0;
#X connect 22 2 2 0;
#X connect 22 3 3 0;
#X connect 22 4 23 0;
#X connect 22 5 24 0;
#X connect 23 0 1 0;
#X connect 23 0 10 0;
#X connect 24 0 1 0;
#X connect 24 0 10 0;
#X coords 0 -1 1 1 195 34 2 100 100;
#X restore 22 -12 pd presets;
#X obj 190 -112 int 0;
#X obj 186 -81 + 1;
#X obj 190 -137 r blue;
#X obj 190 -54 % 6;
#X connect 0 0 4 0;
#X connect 1 0 2 1;
#X connect 2 0 4 0;
#X connect 2 1 0 0;
#X connect 3 0 2 0;
#X connect 5 0 0 1;
#X connect 6 0 7 0;
#X connect 7 0 9 0;
#X connect 8 0 6 0;
#X connect 9 0 6 1;
#X connect 9 0 5 0;
