#N canvas 55 675 195 261 10;
#X obj 58 -6 keyname;
#X obj 56 103 spigot 1;
#X obj 52 55 t b f;
#X obj 57 80 symbol;
#X obj -4 145 bng 55 250 50 0 empty empty empty 17 7 0 10 -262144 -258113
-45076;
#X obj 51 145 bng 55 250 50 0 empty empty empty 17 7 0 10 -262144 -4034
-45076;
#X obj 106 145 bng 55 250 50 0 empty empty empty 17 7 0 10 -262144
-4160 -45076;
#X obj -3 209 s red;
#X obj 56 212 s green;
#X obj 117 212 s blue;
#N canvas 1179 661 450 300 gemgui 0;
#X obj -65 102 gemwin;
#X msg -43 72 0 \, destroy;
#N canvas 107 24 450 300 esc 0;
#X obj 65 20 gemkeyboard;
#X obj 65 167 outlet;
#X obj 89 71 keyname;
#X obj 128 96 sel Escape;
#X obj 65 41 sel 53;
#X obj 189 47 sel Escape;
#X obj 150 22 gemkeyname;
#X connect 0 0 4 0;
#X connect 2 1 3 0;
#X connect 3 0 1 0;
#X connect 4 0 1 0;
#X connect 5 0 1 0;
#X connect 6 1 5 0;
#X restore -43 50 pd esc;
#X msg -56 17 reset \, fullscreen 1 \, create \, 1;
#X obj 71 80 gemhead;
#X obj 112 240 circle;
#N canvas 1465 774 450 300 colorchoos 0;
#X obj 68 32 inlet;
#X obj 67 198 outlet;
#X obj 59 168 line;
#X obj 65 63 t b b;
#X msg 56 104 0 250;
#X msg 98 87 1;
#X obj 147 18 inlet;
#X obj 146 184 outlet;
#X obj 138 154 line;
#X obj 144 49 t b b;
#X msg 135 90 0 250;
#X msg 177 73 1;
#X obj 222 24 inlet;
#X obj 221 190 outlet;
#X obj 213 160 line;
#X obj 219 55 t b b;
#X msg 210 96 0 250;
#X msg 252 79 1;
#X connect 0 0 3 0;
#X connect 2 0 1 0;
#X connect 3 0 4 0;
#X connect 3 1 5 0;
#X connect 4 0 2 0;
#X connect 5 0 2 0;
#X connect 6 0 9 0;
#X connect 8 0 7 0;
#X connect 9 0 10 0;
#X connect 9 1 11 0;
#X connect 10 0 8 0;
#X connect 11 0 8 0;
#X connect 12 0 15 0;
#X connect 14 0 13 0;
#X connect 15 0 16 0;
#X connect 15 1 17 0;
#X connect 16 0 14 0;
#X connect 17 0 14 0;
#X restore 136 163 pd colorchoos;
#X obj 112 216 colorRGB 1 1 1 1;
#X obj 146 52 gemkeyname;
#X obj 120 132 route Left Right Up;
#X msg 184 87 \$1;
#X obj 209 116 print;
#X connect 1 0 0 0;
#X connect 2 0 1 0;
#X connect 3 0 0 0;
#X connect 4 0 7 0;
#X connect 6 0 7 1;
#X connect 6 1 7 2;
#X connect 6 2 7 3;
#X connect 7 0 5 0;
#X connect 8 1 10 0;
#X connect 9 0 6 0;
#X connect 9 1 6 1;
#X connect 9 3 6 2;
#X connect 10 0 9 0;
#X restore 109 57 pd gemgui;
#X obj 50 26 spigot 1;
#X obj 34 124 sel Left Up Right;
#X connect 0 0 11 0;
#X connect 0 1 3 1;
#X connect 1 0 12 0;
#X connect 2 0 3 0;
#X connect 2 1 1 1;
#X connect 3 0 1 0;
#X connect 4 0 7 0;
#X connect 5 0 8 0;
#X connect 6 0 9 0;
#X connect 11 0 2 0;
#X connect 12 0 4 0;
#X connect 12 1 5 0;
#X connect 12 2 6 0;
