#N canvas 1345 648 353 299 10;
#X obj 92 -144 fiddle~;
#N canvas 397 266 880 360 tube 0;
#X obj 297 -57 inlet;
#X obj 391 -54 inlet~;
#X obj 384 232 outlet;
#X obj 591 263 outlet~;
#X obj 522 215 print info.out..;
#X obj 418 149 phasor~;
#X obj 367 174 samphold~;
#X obj 415 40 mtof;
#X obj 419 101 line~;
#X obj 517 104 *~ 5;
#X obj 515 82 osc~ 1;
#X obj 423 76 pack f 1000;
#X obj 637 77 hsl 80 15 0 1 0 0 empty empty FX_MIX 6 7 0 14 -262144
-1 -1 0 1;
#X obj 638 40 hsl 80 15 0.1 60 1 0 empty empty LFO_Rate 6 7 0 14 -262144
-1 -1 1990 1;
#X obj 639 57 hsl 80 15 0.12 12 1 0 empty empty LFO_Depth 6 7 0 14
-262144 -1 -1 2064 1;
#X obj 638 21 hsl 80 15 42 42000 0 0 empty empty Track_Rate 6 7 0 14
-262144 -1 -1 180 1;
#X obj 638 -1 hsl 80 15 12 42 0 0 empty empty NyQuist 6 7 0 14 -262144
-1 -1 0 1;
#X obj 465 183 expr abs($f1-1);
#X obj 420 -16 bang;
#X msg -46 142 set LFOrate 0.1 60;
#X msg -46 174 set LFOdepth 0.12 12;
#X obj 414 17 + 12;
#X obj 70 231 print;
#N canvas 578 684 450 300 nyquist 0;
#X obj 68 210 outlet;
#X obj 46 -12 inlet;
#X obj 104 101 hsl 128 27 12 48 0 0 empty \$0-canvas0 Nyquist 4 18
0 22 -66577 -258113 -4034 0 1;
#X msg 107 73 label \$1;
#X msg 179 65 range \$1 \$2;
#X obj 185 40 pack;
#X obj 150 108 cnv 15 1 1 empty \$0-range0 (12-48) 0 0 0 12 -1 -4034
0;
#X obj 147 12 unpack s 4 4;
#X obj 24 47 route set;
#X msg 206 181 label (\$1-\$2);
#X obj 206 202 s \$0-range0;
#X connect 1 0 8 0;
#X connect 2 0 0 0;
#X connect 3 0 2 0;
#X connect 4 0 2 0;
#X connect 4 0 9 0;
#X connect 5 0 4 0;
#X connect 7 0 3 0;
#X connect 7 1 5 0;
#X connect 7 2 5 1;
#X connect 8 0 7 0;
#X connect 8 1 2 0;
#X connect 9 0 10 0;
#X coords 0 -1 1 1 135 28 1 100 100;
#X restore 100 101 pd nyquist;
#N canvas 1091 724 450 300 nyquist 0;
#X obj 68 210 outlet;
#X obj 46 -12 inlet;
#X obj 104 100 hsl 128 27 4 4200 0 0 empty \$0-range1 Trackrate 4 18
0 22 -66577 -258113 -4034 3015 1;
#X msg 107 73 label \$1;
#X msg 179 65 range \$1 \$2;
#X obj 185 40 pack;
#X obj 158 105 cnv 15 1 1 empty \$0-range1 (4-4200) 0 0 0 12 -1 -4034
0;
#X obj 147 12 unpack s 4 4;
#X obj 24 47 route set;
#X msg 206 181 label (\$1-\$2);
#X obj 207 202 s \$0-range1;
#X connect 1 0 8 0;
#X connect 2 0 0 0;
#X connect 3 0 2 0;
#X connect 4 0 2 0;
#X connect 4 0 9 0;
#X connect 5 0 4 0;
#X connect 7 0 3 0;
#X connect 7 1 5 0;
#X connect 7 2 5 1;
#X connect 8 0 7 0;
#X connect 8 1 2 0;
#X connect 9 0 10 0;
#X coords 0 -1 1 1 135 28 1 100 100;
#X restore 100 131 pd nyquist;
#N canvas 697 643 450 300 nyquist 0;
#X obj 68 210 outlet;
#X obj 46 -12 inlet;
#X obj 104 101 hsl 128 27 0.1 60 0 0 empty \$0-canvas2 LFOrate 4 18
0 22 -66577 -258113 -4034 85 1;
#X msg 107 73 label \$1;
#X msg 179 65 range \$1 \$2;
#X obj 185 40 pack;
#X obj 150 108 cnv 15 1 1 empty \$0-canvas2 (0.1-60) 0 0 0 12 -1 -4034
0;
#X obj 147 12 unpack s 4 4;
#X obj 24 47 route set;
#X msg 206 181 label (\$1-\$2);
#X obj 206 202 s \$0-canvas2;
#X connect 1 0 8 0;
#X connect 2 0 0 0;
#X connect 3 0 2 0;
#X connect 4 0 2 0;
#X connect 4 0 9 0;
#X connect 5 0 4 0;
#X connect 7 0 3 0;
#X connect 7 1 5 0;
#X connect 7 2 5 1;
#X connect 8 0 7 0;
#X connect 8 1 2 0;
#X connect 9 0 10 0;
#X coords 0 -1 1 1 135 28 1 100 100;
#X restore 100 161 pd nyquist;
#N canvas 1264 455 450 300 nyquist 0;
#X obj 68 210 outlet;
#X obj 46 -12 inlet;
#X obj 104 101 hsl 128 27 0.12 12 0 0 empty \$0-canvas3 LFOdepth 4
18 0 22 -66577 -258113 -4034 299 1;
#X msg 107 73 label \$1;
#X msg 179 65 range \$1 \$2;
#X obj 185 40 pack;
#X obj 150 108 cnv 15 1 1 empty \$0-canvas3 (0.12-12) 0 0 0 12 -1 -4034
0;
#X obj 147 12 unpack s 4 4;
#X obj 24 47 route set;
#X msg 206 181 label (\$1-\$2);
#X obj 207 202 s \$0-canvas3;
#X connect 1 0 8 0;
#X connect 2 0 0 0;
#X connect 3 0 2 0;
#X connect 4 0 2 0;
#X connect 4 0 9 0;
#X connect 5 0 4 0;
#X connect 7 0 3 0;
#X connect 7 1 5 0;
#X connect 7 2 5 1;
#X connect 8 0 7 0;
#X connect 8 1 2 0;
#X connect 9 0 10 0;
#X coords 0 -1 1 1 135 28 1 100 100;
#X restore 100 191 pd nyquist;
#X floatatom 321 110 5 0 0 0 - - -;
#X obj -9 13 loadbang;
#X msg -38 60 set Nyquist 12 48;
#X obj 80 22 route Nyquist Trackrate LFOrate LFOdepth;
#X msg -44 91 set Trackrate 4 4200;
#X connect 0 0 30 0;
#X connect 1 0 6 0;
#X connect 5 0 6 1;
#X connect 6 0 3 0;
#X connect 7 0 11 0;
#X connect 8 0 5 0;
#X connect 9 0 5 0;
#X connect 10 0 9 0;
#X connect 11 0 8 0;
#X connect 12 0 17 0;
#X connect 13 0 10 0;
#X connect 14 0 9 1;
#X connect 15 0 11 1;
#X connect 16 0 18 0;
#X connect 16 0 21 1;
#X connect 18 0 21 0;
#X connect 19 0 25 0;
#X connect 20 0 26 0;
#X connect 21 0 7 0;
#X connect 23 0 16 0;
#X connect 24 0 15 0;
#X connect 25 0 13 0;
#X connect 26 0 14 0;
#X connect 28 0 29 0;
#X connect 28 0 31 0;
#X connect 28 0 19 0;
#X connect 28 0 20 0;
#X connect 29 0 23 0;
#X connect 30 0 23 0;
#X connect 30 1 24 0;
#X connect 30 2 25 0;
#X connect 30 3 26 0;
#X connect 30 4 21 0;
#X connect 31 0 24 0;
#X coords 0 -1 1 1 136 120 1 100 100;
#X restore 86 -117 pd tube;
#X obj 123 -200 r red;
#N canvas 1 77 450 300 bypass 0;
#X obj 219 16 inlet~;
#X obj 309 14 inlet;
#X obj 96 272 outlet~;
#X obj 302 261 outlet~;
#X obj 288 63 + 1;
#X obj 337 50 % 2;
#X obj 298 41 int 0;
#X obj 279 179 vline~;
#X obj 263 203 *~;
#X obj 183 193 vline~;
#X obj 131 224 *~;
#X obj 207 140 == 0;
#X obj 218 68 hip~ 90;
#X msg 279 155 \$1 70;
#X msg 183 169 \$1 70;
#X connect 0 0 12 0;
#X connect 1 0 6 0;
#X connect 4 0 5 0;
#X connect 5 0 6 1;
#X connect 5 0 13 0;
#X connect 5 0 11 0;
#X connect 6 0 4 0;
#X connect 7 0 8 1;
#X connect 8 0 3 0;
#X connect 9 0 10 1;
#X connect 10 0 2 0;
#X connect 11 0 14 0;
#X connect 12 0 10 0;
#X connect 12 0 8 0;
#X connect 13 0 7 0;
#X connect 14 0 9 0;
#X restore 71 -176 pd bypass;
#X obj 71 -202 adc~ 2;
#X obj 72 39 dac~ 2;
#N canvas 828 532 450 455 presets 0;
#X obj 101 101 hradio 32 1 0 8 empty empty zot 2 12 2 52 -262144 -1
-1 2;
#X obj 142 47 prepend label;
#X obj 104 -86 sel 0 1 2 3 4 5 6 7;
#X msg 188 -49 thwip;
#X msg 182 -20 zirt;
#X msg 83 -62 bloop;
#X msg 74 -35 frag;
#X msg 148 10 bees;
#X msg 97 -8 zot;
#X msg 125 8 waz;
#X obj 98 149 sel 0 1 2 3 4 5 6 7;
#N canvas 894 580 450 300 bloop 0;
#X obj 42 57 inlet;
#X obj 21 241 outlet;
#X msg 94 180 Trackrate 4;
#X msg 102 128 LFOdepth 0.12;
#X msg 99 155 LFOrate 0.1;
#X obj 33 101 t b b b b;
#X msg 86 211 Nyquist 12;
#X connect 0 0 5 0;
#X connect 2 0 1 0;
#X connect 3 0 1 0;
#X connect 4 0 1 0;
#X connect 5 0 6 0;
#X connect 5 1 2 0;
#X connect 5 2 4 0;
#X connect 5 3 3 0;
#X connect 6 0 1 0;
#X restore 93 177 pd bloop;
#N canvas 894 580 450 300 frag 0;
#X obj 42 57 inlet;
#X obj 21 241 outlet;
#X msg 86 211 Nyquist 12;
#X obj 33 101 t b b b b;
#X msg 99 155 LFOrate 12;
#X msg 102 128 LFOdepth 12;
#X msg 94 180 Trackrate 4000;
#X connect 0 0 3 0;
#X connect 2 0 1 0;
#X connect 3 0 2 0;
#X connect 3 1 6 0;
#X connect 3 2 4 0;
#X connect 3 3 5 0;
#X connect 4 0 1 0;
#X connect 5 0 1 0;
#X connect 6 0 1 0;
#X restore 103 197 pd frag;
#N canvas 894 580 450 300 zot 0;
#X obj 42 57 inlet;
#X obj 21 241 outlet;
#X msg 86 211 Nyquist 12;
#X obj 33 101 t b b b b;
#X msg 94 180 Trackrate 1000;
#X msg 99 155 LFOrate 0.5;
#X msg 102 128 LFOdepth 0.4;
#X connect 0 0 3 0;
#X connect 2 0 1 0;
#X connect 3 0 2 0;
#X connect 3 1 4 0;
#X connect 3 2 5 0;
#X connect 3 3 6 0;
#X connect 4 0 1 0;
#X connect 5 0 1 0;
#X connect 6 0 1 0;
#X restore 113 217 pd zot;
#N canvas 1098 675 450 300 waz 0;
#X obj 42 57 inlet;
#X obj 21 241 outlet;
#X obj 33 101 t b b b b;
#X msg 87 211 Nyquist 24;
#X msg 94 180 Trackrate 1000;
#X msg 99 155 LFOrate 1;
#X msg 102 128 LFOdepth 0.6;
#X connect 0 0 2 0;
#X connect 2 0 3 0;
#X connect 2 1 4 0;
#X connect 2 2 5 0;
#X connect 2 3 6 0;
#X connect 3 0 1 0;
#X connect 4 0 1 0;
#X connect 5 0 1 0;
#X connect 6 0 1 0;
#X restore 123 237 pd waz;
#N canvas 894 580 450 300 zirt 0;
#X obj 42 57 inlet;
#X obj 21 241 outlet;
#X obj 33 101 t b b b b;
#X msg 86 211 Nyquist 48;
#X msg 94 180 Trackrate 76;
#X msg 102 128 LFOdepth 12;
#X msg 99 155 LFOrate 0.12;
#X connect 0 0 2 0;
#X connect 2 0 3 0;
#X connect 2 1 4 0;
#X connect 2 2 6 0;
#X connect 2 3 5 0;
#X connect 3 0 1 0;
#X connect 4 0 1 0;
#X connect 5 0 1 0;
#X connect 6 0 1 0;
#X restore 143 279 pd zirt;
#N canvas 894 580 450 300 thwip 0;
#X obj 42 57 inlet;
#X obj 21 241 outlet;
#X msg 94 180 Trackrate 4;
#X msg 102 128 LFOdepth 0.12;
#X msg 99 155 LFOrate 0.1;
#X obj 33 101 t b b b b;
#X msg 86 211 Nyquist 48;
#X connect 0 0 5 0;
#X connect 2 0 1 0;
#X connect 3 0 1 0;
#X connect 4 0 1 0;
#X connect 5 0 6 0;
#X connect 5 1 2 0;
#X connect 5 2 4 0;
#X connect 5 3 3 0;
#X connect 6 0 1 0;
#X restore 153 299 pd thwip;
#N canvas 894 580 450 300 bees 0;
#X obj 42 57 inlet;
#X obj 21 241 outlet;
#X msg 99 155 LFOrate 0.1;
#X obj 33 101 t b b b b;
#X msg 86 211 Nyquist 72;
#X msg 94 180 Trackrate 4200;
#X msg 102 128 LFOdepth 2;
#X connect 0 0 3 0;
#X connect 2 0 1 0;
#X connect 3 0 4 0;
#X connect 3 1 5 0;
#X connect 3 2 2 0;
#X connect 3 3 6 0;
#X connect 4 0 1 0;
#X connect 5 0 1 0;
#X connect 6 0 1 0;
#X restore 167 323 pd bees;
#X obj 81 326 outlet;
#X msg 34 -58 38;
#X msg 46 -31 68;
#X msg 154 -47 76;
#X msg 72 14 2;
#X msg 189 26 130;
#X msg -5 73 label_pos \$1 12;
#X msg 146 -14 wuf;
#N canvas 1034 587 450 300 wuf 0;
#X obj 42 57 inlet;
#X obj 21 241 outlet;
#X msg 86 211 Nyquist 12;
#X obj 33 101 t b b b b;
#X msg 102 128 LFOdepth 6;
#X msg 99 155 LFOrate 0.5;
#X msg 94 180 Trackrate 2000;
#X connect 0 0 3 0;
#X connect 2 0 1 0;
#X connect 3 0 2 0;
#X connect 3 1 6 0;
#X connect 3 2 5 0;
#X connect 3 3 4 0;
#X connect 4 0 1 0;
#X connect 5 0 1 0;
#X connect 6 0 1 0;
#X restore 133 259 pd wuf;
#X symbolatom 381 64 10 0 0 0 - - -;
#X msg 251 61 set \$1;
#X obj 298 55 loadbang;
#X msg 303 76 2;
#X obj 367 -74 inlet;
#X connect 0 0 2 0;
#X connect 0 0 10 0;
#X connect 0 0 28 0;
#X connect 1 0 0 0;
#X connect 2 0 5 0;
#X connect 2 1 6 0;
#X connect 2 2 8 0;
#X connect 2 3 9 0;
#X connect 2 4 25 0;
#X connect 2 5 4 0;
#X connect 2 6 3 0;
#X connect 2 7 7 0;
#X connect 3 0 1 0;
#X connect 3 0 21 0;
#X connect 4 0 1 0;
#X connect 4 0 21 0;
#X connect 5 0 19 0;
#X connect 5 0 1 0;
#X connect 6 0 1 0;
#X connect 6 0 20 0;
#X connect 7 0 1 0;
#X connect 7 0 23 0;
#X connect 8 0 1 0;
#X connect 8 0 22 0;
#X connect 9 0 1 0;
#X connect 9 0 22 0;
#X connect 10 0 11 0;
#X connect 10 1 12 0;
#X connect 10 2 13 0;
#X connect 10 3 14 0;
#X connect 10 4 26 0;
#X connect 10 5 15 0;
#X connect 10 6 16 0;
#X connect 10 7 17 0;
#X connect 11 0 18 0;
#X connect 12 0 18 0;
#X connect 13 0 18 0;
#X connect 14 0 18 0;
#X connect 15 0 18 0;
#X connect 16 0 18 0;
#X connect 17 0 18 0;
#X connect 19 0 24 0;
#X connect 20 0 24 0;
#X connect 21 0 24 0;
#X connect 22 0 24 0;
#X connect 23 0 24 0;
#X connect 24 0 0 0;
#X connect 25 0 1 0;
#X connect 25 0 19 0;
#X connect 26 0 18 0;
#X connect 28 0 30 0;
#X connect 29 0 30 0;
#X connect 30 0 0 0;
#X connect 31 0 0 0;
#X coords 0 -1 1 1 258 34 2 100 100;
#X restore 136 18 pd presets;
#X obj 316 -106 int 0;
#X obj 316 -48 % 8;
#X obj 312 -75 + 1;
#X obj 316 -131 r blue;
#X obj -55 -81 specmash;
#X connect 0 0 1 0;
#X connect 1 1 5 0;
#X connect 2 0 3 1;
#X connect 3 0 5 0;
#X connect 3 1 1 1;
#X connect 3 1 0 0;
#X connect 3 1 11 0;
#X connect 4 0 3 0;
#X connect 6 0 1 0;
#X connect 7 0 9 0;
#X connect 8 0 7 1;
#X connect 8 0 6 0;
#X connect 9 0 8 0;
#X connect 10 0 7 0;
#X connect 11 0 5 0;
